<?xml version="1.0" standalone="no"?>
<!DOCTYPE svg PUBLIC "-//W3C//DTD SVG 1.1//EN" "http://www.w3.org/Graphics/SVG/1.1/DTD/svg11.dtd" >
<svg xmlns="http://www.w3.org/2000/svg">
<metadata></metadata>
<defs>
<font id="core_sans_n35_light" horiz-adv-x="1196" >
<font-face units-per-em="2048" ascent="1638" descent="-410" />
<missing-glyph horiz-adv-x="614" />
<glyph unicode="&#xfb03;" horiz-adv-x="1746" d="M25 954v107h225v69q0 365 342 365q41 0 88 -6t88 -19l-14 -112q-35 14 -74 20t-80 6q-123 0 -175 -62t-52 -212v-49h473v67q0 184 82 275.5t231 91.5q86 0 148 -18l-15 -113q-27 10 -59.5 15t-65.5 5q-104 0 -151 -62t-47 -212v-49h309v-107h-309v-954h-123v954h-473 v-954h-123v954h-225zM1434 1386q0 59 18 84t59 25t59.5 -24.5t18.5 -84.5q0 -59 -18.5 -83.5t-59.5 -24.5t-59 24.5t-18 83.5zM1450 0v1061h123v-1061h-123z" />
<glyph unicode="&#xfb04;" horiz-adv-x="1730" d="M25 954v107h225v69q0 365 342 365q41 0 88 -6t88 -19l-14 -112q-35 14 -74 20t-80 6q-123 0 -175 -62t-52 -212v-49h473v67q0 184 82 275.5t231 91.5q86 0 148 -18l-15 -113q-27 10 -59.5 15t-65.5 5q-104 0 -151 -62t-47 -212v-49h309v-107h-309v-954h-123v954h-473 v-954h-123v954h-225zM1450 0v1495h123v-1495h-123z" />
<glyph horiz-adv-x="0" />
<glyph unicode="&#xd;" horiz-adv-x="485" />
<glyph horiz-adv-x="0" />
<glyph horiz-adv-x="0" />
<glyph unicode=" "  horiz-adv-x="614" />
<glyph unicode="&#x09;" horiz-adv-x="614" />
<glyph unicode="&#xa0;" horiz-adv-x="614" />
<glyph unicode="!" horiz-adv-x="532" d="M178 90q0 63 21.5 89t66.5 26t66.5 -26t21.5 -89t-21.5 -89t-66.5 -26t-66.5 26t-21.5 89zM197 987v447h139v-447l-29 -641h-82z" />
<glyph unicode="&#x22;" horiz-adv-x="890" d="M209 1434h141v-101l-26 -467h-101zM541 1434h141v-101l-25 -467h-102z" />
<glyph unicode="#" horiz-adv-x="1400" d="M76 383v111h243l84 475h-243v110h262l61 355h127l-61 -355h420l61 355h127l-61 -355h229v-110h-248l-84 -475h248v-111h-266l-66 -383h-127l66 383h-418l-68 -383h-126l67 383h-227zM446 494h420l84 475h-420z" />
<glyph unicode="$" horiz-adv-x="1097" d="M106 1106q0 147 109 239.5t295 108.5v137h104v-133q88 -2 162 -15t139 -40l-10 -131q-70 35 -141.5 49t-149.5 18v-553q100 -37 174 -78.5t121 -92t69.5 -112t22.5 -138.5q0 -160 -100 -259.5t-287 -121.5v-138h-104v129q-111 0 -211 25t-178 70l10 137q86 -55 182.5 -84 t196.5 -29v594q-209 68 -306.5 164t-97.5 254zM242 1108q0 -94 61.5 -162.5t206.5 -122.5v512q-131 -16 -199.5 -76.5t-68.5 -150.5zM614 102q125 20 188.5 88t63.5 170q0 98 -57 166t-195 125v-549z" />
<glyph unicode="%" horiz-adv-x="1812" d="M168 1077q0 80 22.5 148.5t63.5 118t100.5 77t132.5 27.5q74 0 133.5 -27.5t101.5 -77t63.5 -118t21.5 -148.5t-21.5 -147.5t-63.5 -117.5t-101.5 -77.5t-133.5 -27.5t-133 27.5t-100 77.5t-63.5 117.5t-22.5 147.5zM293 1077q0 -121 51 -189.5t143 -68.5t143.5 68.5 t51.5 189.5t-51 190.5t-144 69.5q-92 0 -143 -69.5t-51 -190.5zM324 0l1024 1434h141l-1022 -1434h-143zM1008 354q0 80 21.5 148.5t63.5 118t100 77t132 27.5t133.5 -27.5t101.5 -77t63.5 -118t21.5 -148.5t-21.5 -147.5t-63.5 -117.5t-101.5 -77.5t-133.5 -27.5t-132 27.5 t-100 77.5t-63.5 117.5t-21.5 147.5zM1133 354q0 -121 50 -189.5t142 -68.5t143.5 68.5t51.5 189.5t-51.5 190.5t-143.5 69.5t-142 -69.5t-50 -190.5z" />
<glyph unicode="&#x26;" horiz-adv-x="1314" d="M86 350q0 141 77 242.5t238 181.5q-109 106 -156.5 191.5t-47.5 177.5q0 72 26.5 130t74.5 99t112.5 63.5t140.5 22.5q164 0 263 -90t99 -242q0 -117 -73.5 -210t-235.5 -168l367 -359q33 76 50 169t19 208h125q-2 -141 -26.5 -259t-71.5 -214l301 -293h-168l-199 193 q-80 -106 -199.5 -163t-273.5 -57q-90 0 -169.5 25t-140 73t-96.5 117.5t-36 161.5zM213 346q0 -55 21.5 -103t62.5 -83t100.5 -55.5t134.5 -20.5q121 0 218.5 47t162.5 145l-428 416q-150 -70 -211 -155t-61 -191zM324 1143q0 -31 8 -62.5t30.5 -67.5t60.5 -81t97 -103 q150 72 208 143.5t58 153.5q0 98 -63.5 161t-173.5 63q-104 0 -164.5 -58.5t-60.5 -148.5z" />
<glyph unicode="'" horiz-adv-x="536" d="M199 1434h139v-101l-25 -467h-102z" />
<glyph unicode="(" horiz-adv-x="702" d="M209 635q0 248 83 472t226 429h119q-141 -207 -222 -436.5t-81 -464.5q0 -238 81 -467t222 -434h-119q-143 203 -226 428t-83 473z" />
<glyph unicode=")" horiz-adv-x="702" d="M66 -266q141 205 222 434t81 467q0 236 -81 465t-222 436h118q143 -205 226.5 -429t83.5 -472t-83 -473t-227 -428h-118z" />
<glyph unicode="*" horiz-adv-x="1075" d="M127 518l301 162l-301 162l66 112l290 -178l-10 340h129l-10 -342l291 180l65 -112l-301 -162l301 -162l-65 -112l-291 178l10 -340h-129l10 340l-290 -178z" />
<glyph unicode="+" horiz-adv-x="1253" d="M127 623v114h436v437h127v-437h436v-114h-436v-437h-127v437h-436z" />
<glyph unicode="," horiz-adv-x="598" d="M211 90q0 63 21.5 89t66.5 26t66.5 -26t21.5 -89q0 -115 -26.5 -193.5t-104.5 -150.5l-37 47q68 82 74 182q-41 2 -61.5 28t-20.5 87z" />
<glyph unicode="-" horiz-adv-x="817" d="M127 616v127h563v-127h-563z" />
<glyph unicode="." horiz-adv-x="598" d="M211 90q0 63 21.5 89t66.5 26t66.5 -26t21.5 -89t-21.5 -89t-66.5 -26t-66.5 26t-21.5 89z" />
<glyph unicode="/" horiz-adv-x="980" d="M-16 -225l880 1757h133l-880 -1757h-133z" />
<glyph unicode="0" d="M88 717q0 164 34 300t98.5 234.5t159.5 152.5t218 54t218 -54t159.5 -152.5t98.5 -234.5t34 -300t-34 -300t-98.5 -234.5t-159.5 -153t-218 -54.5t-218 54.5t-159.5 153t-98.5 234.5t-34 300zM223 717q0 -143 24.5 -259t72 -197t118 -124t160.5 -43t159.5 43t118 124 t73 196.5t24.5 259.5q0 143 -24.5 259t-73 196.5t-118 123.5t-159.5 43t-159.5 -43t-118 -123.5t-73 -196.5t-24.5 -259z" />
<glyph unicode="1" d="M254 1167l387 267h117v-1434h-131v1282l-303 -211z" />
<glyph unicode="2" d="M143 0v119q121 104 256.5 232t249.5 257q115 129 167 238.5t52 222.5q0 129 -92 199.5t-241 70.5q-86 0 -168 -21.5t-154 -62.5l-12 125q68 37 159 57.5t183 20.5q96 0 180 -24.5t146.5 -73.5t98.5 -123t36 -172q0 -133 -58.5 -253t-181.5 -259q-111 -125 -225.5 -237.5 t-214.5 -200.5h688v-115h-869z" />
<glyph unicode="3" d="M137 35l10 131q74 -37 164 -54.5t176 -17.5q186 0 281.5 76t95.5 195q0 156 -135 238.5t-397 90.5v115q113 2 207 21.5t161.5 57.5t105.5 93t38 129q0 100 -80 164.5t-252 64.5q-88 0 -174 -18t-158 -57l-14 120q72 35 163 54.5t187 19.5q223 0 343 -94t120 -242 q0 -80 -27.5 -142t-77 -107.5t-116 -76t-146.5 -44.5q182 -35 284.5 -131.5t102.5 -255.5q0 -86 -33.5 -157t-98 -123t-159 -81t-216.5 -29q-92 0 -184.5 13.5t-170.5 46.5z" />
<glyph unicode="4" d="M80 330v125l721 979h131v-990h184v-114h-184v-330h-131v330h-721zM225 444h576v787z" />
<glyph unicode="5" d="M178 39l12 135q78 -43 156 -61.5t172 -18.5q184 0 290.5 90t106.5 256q0 164 -96 239t-270 75q-84 0 -167 -15.5t-151 -42.5v738h770v-115h-639v-479q45 16 102.5 24t110.5 8q106 0 193.5 -28.5t150 -83.5t97.5 -138t35 -192q0 -98 -36 -181t-103.5 -143.5t-165 -95.5 t-222.5 -35q-92 0 -180 14.5t-166 49.5z" />
<glyph unicode="6" d="M113 678q0 205 44 352.5t121.5 242.5t185 140t236.5 45q76 0 154 -13t137 -42l-12 -131q-63 35 -135 51t-146 16q-203 0 -313.5 -141t-132.5 -453q68 78 170 126.5t205 48.5q102 0 187 -34t146.5 -95.5t96.5 -148.5t35 -196q0 -106 -36 -193t-98.5 -148.5t-147.5 -95.5 t-181 -34q-111 0 -206 41t-164 127t-107.5 218.5t-38.5 316.5zM252 598q6 -133 35.5 -228.5t79 -156.5t116 -90t144.5 -29q74 0 135 25.5t104 73t66.5 110.5t23.5 141q0 158 -85 257.5t-255 99.5q-117 0 -209 -55.5t-155 -147.5z" />
<glyph unicode="7" d="M143 1319v115h869v-125l-543 -1309h-141l549 1319h-734z" />
<glyph unicode="8" d="M102 365q0 137 93.5 236t244.5 159q-135 61 -206.5 146t-71.5 200q0 72 31.5 135.5t89 111.5t138.5 76.5t179 28.5q102 0 183 -27.5t137.5 -75.5t86 -111.5t29.5 -135.5q0 -121 -79.5 -209t-213.5 -145q186 -80 267.5 -173.5t81.5 -211.5q0 -92 -36 -165t-100.5 -123 t-154.5 -78t-201 -28q-109 0 -200 26t-157.5 76t-103.5 122.5t-37 165.5zM240 362q0 -61 27.5 -111t75.5 -86t113.5 -54.5t143.5 -18.5t143.5 19.5t113.5 54.5t76 84t28 108q0 51 -17.5 94.5t-60.5 84.5t-118 80.5t-190 84.5q-164 -57 -249.5 -145t-85.5 -195zM299 1112 q0 -57 18.5 -100t57.5 -77t98 -64.5t141 -63.5q139 53 213 128t74 179q0 94 -79 159.5t-222 65.5q-66 0 -121 -18t-95 -49t-62.5 -72t-22.5 -88z" />
<glyph unicode="9" d="M104 987q0 106 36 193.5t98.5 149t147.5 95t181 33.5q111 0 206 -41t164 -127t107.5 -218t38.5 -316q0 -205 -44 -352.5t-121.5 -242.5t-185 -140.5t-236.5 -45.5q-76 0 -154 13.5t-137 42.5l12 131q63 -35 135 -51.5t146 -16.5q203 0 313.5 141.5t132.5 452.5 q-68 -78 -170 -126t-205 -48q-102 0 -187 34t-146.5 95.5t-96.5 148.5t-35 195zM240 989q0 -158 85 -257t255 -99q117 0 209 55t155 148q-6 133 -35.5 228t-79 156.5t-116 90t-144.5 28.5q-74 0 -135 -25.5t-104 -72.5t-66.5 -111.5t-23.5 -140.5z" />
<glyph unicode=":" horiz-adv-x="598" d="M211 90q0 63 21.5 89t66.5 26t66.5 -26t21.5 -89t-21.5 -89t-66.5 -26t-66.5 26t-21.5 89zM211 971q0 63 21.5 88.5t66.5 25.5t66.5 -25.5t21.5 -88.5t-21.5 -89t-66.5 -26t-66.5 25.5t-21.5 89.5z" />
<glyph unicode=";" horiz-adv-x="598" d="M211 90q0 63 21.5 89t66.5 26t66.5 -26t21.5 -89q0 -115 -26.5 -193.5t-104.5 -150.5l-37 47q68 82 74 182q-41 2 -61.5 28t-20.5 87zM211 971q0 63 21.5 88.5t66.5 25.5t66.5 -25.5t21.5 -88.5t-21.5 -89t-66.5 -26t-66.5 25.5t-21.5 89.5z" />
<glyph unicode="&#x3c;" horiz-adv-x="1253" d="M127 621v118l999 455v-129l-852 -385l852 -385v-129z" />
<glyph unicode="=" horiz-adv-x="1253" d="M127 397v115h999v-115h-999zM127 848v115h999v-115h-999z" />
<glyph unicode="&#x3e;" horiz-adv-x="1253" d="M127 166v129l852 385l-852 385v129l999 -455v-118z" />
<glyph unicode="?" horiz-adv-x="1064" d="M106 1376q74 35 169.5 58.5t175.5 23.5q106 0 192 -24.5t147.5 -68.5t94.5 -107.5t33 -141.5q0 -111 -60.5 -202t-191.5 -189q-47 -35 -76 -67.5t-46.5 -69.5t-23.5 -82t-6 -100v-50h-131v56q0 70 10 126t33 103t59.5 87t89.5 77q117 84 162 158.5t45 156.5 q0 100 -77.5 159.5t-243.5 59.5q-88 0 -177 -21.5t-165 -64.5zM358 90q0 63 21.5 89t66.5 26t67 -26t22 -89t-21.5 -89t-67.5 -26q-45 0 -66.5 26t-21.5 89z" />
<glyph unicode="@" horiz-adv-x="1988" d="M96 561q0 193 68.5 357.5t188.5 284.5t283 187.5t349 67.5q197 0 362.5 -64.5t286.5 -178t189.5 -270.5t68.5 -341q0 -109 -26.5 -200t-76.5 -158.5t-121 -105.5t-159 -38q-92 0 -149 51.5t-80 143.5q-78 -90 -180.5 -137t-231.5 -47q-76 0 -141 25.5t-114.5 70.5 t-77 108.5t-27.5 139.5q0 125 47 227t124 176t176 115t202 41q260 0 391 -201l-80 -424q0 -92 39 -144t109 -52q61 0 110 32.5t84 88t53.5 130t18.5 158.5q0 160 -58.5 297t-165 238.5t-253 159t-320.5 57.5q-164 0 -306 -60.5t-246.5 -168t-165 -253t-60.5 -313.5 q0 -170 61.5 -314.5t170 -251t255 -165.5t318.5 -59q289 0 508 151l45 -94q-123 -76 -257 -118t-296 -42q-195 0 -363 67.5t-290.5 187.5t-192.5 284t-70 354zM635 469q0 -115 66.5 -180.5t175.5 -65.5q106 0 200 43t168 148l70 381q-82 115 -262 114q-82 0 -157 -33.5 t-133 -94t-93 -140.5t-35 -172z" />
<glyph unicode="A" horiz-adv-x="1310" d="M14 0l568 1434h147l567 -1434h-143l-152 391h-692l-151 -391h-144zM354 506h602l-301 782z" />
<glyph unicode="B" horiz-adv-x="1265" d="M168 0v1434h473q109 0 195 -28t146 -77t92 -117.5t32 -150.5q0 -115 -49 -191.5t-144 -115.5q133 -41 200 -132.5t67 -222.5q0 -188 -134.5 -293.5t-386.5 -105.5h-491zM299 115h346h3q394 0 394 284q0 156 -104 221.5t-313 65.5h-326v-571zM299 801h313 q184 0 271.5 58.5t87.5 199.5q0 123 -89 191.5t-255 68.5h-328v-518z" />
<glyph unicode="C" horiz-adv-x="1234" d="M96 717q0 164 52.5 300t147.5 234.5t231.5 152.5t306.5 54q80 0 161.5 -14t147.5 -45l-13 -127q-63 35 -137.5 51t-152.5 16q-143 0 -256 -45t-192 -127t-120 -196.5t-41 -253.5q0 -141 42 -257t121 -197t192.5 -125t257.5 -44q76 0 152.5 17.5t142.5 54.5l10 -129 q-72 -35 -154 -48.5t-157 -13.5q-170 0 -307.5 53.5t-233.5 150.5t-148.5 234.5t-52.5 303.5z" />
<glyph unicode="D" horiz-adv-x="1376" d="M168 0v1434h326q174 0 319 -45.5t248.5 -135.5t161 -224t57.5 -312t-57.5 -312.5t-161 -224.5t-248.5 -135t-319 -45h-326zM299 115h178q154 0 278 35.5t210 109.5t133 187.5t47 269.5t-47 269.5t-133 187t-210 109.5t-278 36h-178v-1204z" />
<glyph unicode="E" horiz-adv-x="1140" d="M168 0v1434h868v-115h-737v-520h686v-115h-686v-569h756v-115h-887z" />
<glyph unicode="F" horiz-adv-x="1085" d="M168 0v1434h868v-115h-737v-516h686v-115h-686v-688h-131z" />
<glyph unicode="G" horiz-adv-x="1429" d="M96 717q0 160 53.5 295t151.5 234.5t236.5 155.5t308.5 56q115 0 218 -19.5t187 -56.5l-10 -133q-86 47 -186.5 68.5t-204.5 21.5q-139 0 -253 -47t-194.5 -130t-126 -196.5t-45.5 -248.5q0 -137 45.5 -251t129 -197t202.5 -129t266 -46q80 0 145.5 8.5t131.5 28.5v522 h-426v115h557v-719q-92 -39 -191.5 -56.5t-220.5 -17.5q-176 0 -319 55.5t-244.5 155t-156 235.5t-54.5 296z" />
<glyph unicode="H" horiz-adv-x="1419" d="M168 0v1434h131v-613h821v613h131v-1434h-131v707h-821v-707h-131z" />
<glyph unicode="I" horiz-adv-x="487" d="M178 0v1434h131v-1434h-131z" />
<glyph unicode="J" horiz-adv-x="890" d="M25 43l12 131q61 -41 132 -60.5t138 -19.5q135 0 210 84t75 283v973h131v-973q0 -135 -29.5 -227.5t-85 -149.5t-131.5 -83t-168 -26q-74 0 -149.5 16.5t-134.5 51.5z" />
<glyph unicode="K" horiz-adv-x="1189" d="M168 0v1434h131v-648l659 648h166l-671 -670l761 -764h-174l-741 737v-737h-131z" />
<glyph unicode="L" horiz-adv-x="1138" d="M168 0v1434h131v-1319h795v-115h-926z" />
<glyph unicode="M" horiz-adv-x="1712" d="M168 0v1434h149l539 -816l539 816h149v-1434h-131v1243l-498 -751h-118l-498 751v-1243h-131z" />
<glyph unicode="N" horiz-adv-x="1433" d="M168 0v1434h162l805 -1262v1262h131v-1434h-160l-805 1262v-1262h-133z" />
<glyph unicode="O" horiz-adv-x="1445" d="M96 717q0 158 42 293t123 235.5t197.5 156.5t264.5 56q147 0 264 -56t198 -156.5t123 -235.5t42 -293t-42 -293t-123 -235.5t-198 -157t-264 -56.5t-264 56.5t-198 157t-123 235.5t-42 293zM231 717q0 -139 34 -254t97.5 -197t154.5 -127t206 -45t206 45t154.5 127 t97 197t33.5 254t-33.5 253.5t-97 196.5t-154.5 127t-206 45t-206 -45t-154.5 -127t-97.5 -196.5t-34 -253.5z" />
<glyph unicode="P" horiz-adv-x="1193" d="M168 0v1434h412q123 0 222 -29t169.5 -84t108.5 -137.5t38 -186.5q0 -106 -38 -188t-108.5 -137.5t-170 -84t-221.5 -28.5h-281v-559h-131zM299 674h268q205 0 310.5 77.5t105.5 245.5q0 166 -105.5 244t-310.5 78h-268v-645z" />
<glyph unicode="Q" horiz-adv-x="1445" d="M96 717q0 158 42 293t123 235.5t197.5 156.5t264.5 56q147 0 264 -56t198 -156.5t123 -235.5t42 -293q0 -145 -37 -273.5t-105.5 -225.5t-170 -159.5t-230.5 -76.5q14 -102 81.5 -144.5t190.5 -42.5q49 0 97.5 7.5t85.5 21.5l14 -111q-37 -10 -92.5 -17t-108.5 -7 q-76 0 -143.5 15t-119.5 50t-86 89.5t-42 133.5q-139 8 -248.5 67.5t-185.5 158t-115 230.5t-39 284zM231 717q0 -139 34 -254t97.5 -197t154.5 -127t206 -45t206 45t154.5 127t97 197t33.5 254t-33.5 253.5t-97 196.5t-154.5 127t-206 45t-206 -45t-154.5 -127 t-97.5 -196.5t-34 -253.5z" />
<glyph unicode="R" horiz-adv-x="1228" d="M168 0v1434h432q117 0 213 -28t165 -80t106.5 -129t37.5 -173q0 -154 -88 -248t-241 -133l411 -643h-147l-391 621q-27 -2 -52.5 -3.5t-52.5 -1.5h-262v-616h-131zM299 731h291q193 0 295 77t102 216q0 141 -102.5 218t-294.5 77h-291v-588z" />
<glyph unicode="S" horiz-adv-x="1097" d="M106 1106q0 80 35 145.5t97.5 111.5t151.5 70.5t200 24.5q98 0 176 -13t149 -42l-10 -131q-76 37 -152.5 52t-164.5 15q-168 0 -257 -63.5t-89 -167.5q0 -100 72.5 -172t242.5 -129q117 -39 201 -82t138 -95t79.5 -118t25.5 -147q0 -180 -130 -285t-369 -105 q-102 0 -202.5 25t-178.5 70l10 137q86 -55 182.5 -84t194.5 -29q180 0 269 72t89 194q0 57 -18.5 103.5t-60.5 86.5t-109.5 73.5t-165.5 64.5q-211 68 -308.5 164t-97.5 254z" />
<glyph unicode="T" horiz-adv-x="1093" d="M25 1319v115h1044v-115h-457v-1319h-131v1319h-456z" />
<glyph unicode="U" horiz-adv-x="1449" d="M168 553v881h131v-869q0 -240 111.5 -355.5t314.5 -115.5t314.5 116t111.5 355v869h131v-881q0 -141 -41 -248.5t-114.5 -180.5t-176 -111t-225.5 -38t-225.5 38t-176 111t-114.5 180.5t-41 248.5z" />
<glyph unicode="V" horiz-adv-x="1372" d="M45 1434h143l498 -1282l498 1282h143l-567 -1434h-148z" />
<glyph unicode="W" horiz-adv-x="2019" d="M45 1434h139l408 -1256l342 1256h151l342 -1256l408 1256h139l-471 -1434h-151l-342 1243l-342 -1243h-152z" />
<glyph unicode="X" horiz-adv-x="1341" d="M35 0l559 727l-543 707h154l465 -607l467 607h153l-542 -707l559 -727h-154l-483 627l-482 -627h-153z" />
<glyph unicode="Y" horiz-adv-x="1339" d="M45 1434h148l477 -740l477 740h147l-559 -865v-569h-131v569z" />
<glyph unicode="Z" horiz-adv-x="1140" d="M66 0v127l837 1192h-807v115h959v-127l-840 -1192h860v-115h-1009z" />
<glyph unicode="[" horiz-adv-x="800" d="M250 -266v1802h506v-109h-375v-1585h375v-108h-506z" />
<glyph unicode="\" horiz-adv-x="980" d="M-16 1532h135l878 -1757h-135z" />
<glyph unicode="]" horiz-adv-x="800" d="M45 -158h375v1585h-375v109h506v-1802h-506v108z" />
<glyph unicode="^" horiz-adv-x="1253" d="M98 756l459 678h139l459 -678h-151l-377 563l-377 -563h-152z" />
<glyph unicode="_" horiz-adv-x="1024" d="M0 -233h1024v-115h-1024v115z" />
<glyph unicode="`" horiz-adv-x="827" d="M203 1479v16h149l246 -332h-115z" />
<glyph unicode="a" horiz-adv-x="1091" d="M76 301q0 160 116.5 252t339.5 92h299v70q0 147 -70.5 203.5t-228.5 56.5q-98 0 -185 -21.5t-163 -60.5l-14 115q72 35 167 56t200 21q211 0 314 -85t103 -300v-700h-123v127q-59 -72 -152 -112t-214 -40q-80 0 -151.5 20.5t-124 61.5t-83 102.5t-30.5 141.5zM203 305 q0 -113 76.5 -166t195.5 -53q117 0 207 38t149 124v291h-296q-172 0 -252 -64.5t-80 -169.5z" />
<glyph unicode="b" horiz-adv-x="1167" d="M147 0v1495h123v-532q57 57 140.5 89.5t175.5 32.5q104 0 194 -37.5t157 -110.5t105.5 -175.5t38.5 -231.5t-38.5 -231t-105.5 -175t-157 -111t-194 -38q-92 0 -175 33t-141 88v-96h-123zM270 215q53 -63 133 -96t166 -33q80 0 151 29.5t123 86t81.5 139.5t29.5 189 t-29.5 189.5t-81.5 139.5t-123 86t-151 30q-86 0 -165.5 -33t-133.5 -96v-631z" />
<glyph unicode="c" horiz-adv-x="1021" d="M86 530q0 127 42 229.5t115.5 175.5t176 111.5t223.5 38.5q80 0 155.5 -14t137.5 -43l-12 -123q-59 37 -131 53.5t-148 16.5q-92 0 -171 -30t-137 -87t-91 -140t-33 -188q0 -104 33 -187t91 -139.5t138 -87t176 -30.5q78 0 153 18.5t130 59.5l12 -123q-59 -33 -135 -49.5 t-160 -16.5q-125 0 -229.5 39t-179 112t-115.5 175t-41 229z" />
<glyph unicode="d" horiz-adv-x="1167" d="M86 530q0 129 39 231.5t105.5 175.5t156.5 110.5t195 37.5q92 0 175 -32.5t140 -89.5v532h123v-1495h-123v96q-57 -55 -140 -88t-175 -33q-104 0 -194.5 38t-157 111t-105.5 175t-39 231zM213 530q0 -106 29.5 -189t82 -139.5t123 -86t150.5 -29.5q86 0 166 33t133 96 v631q-53 63 -133 96t-166 33q-80 0 -150.5 -30t-123 -86t-82 -139t-29.5 -190z" />
<glyph unicode="e" horiz-adv-x="1105" d="M86 535q0 125 34 227t95 174t148.5 110.5t193.5 38.5q109 0 197 -39.5t149.5 -112.5t94 -173.5t32.5 -218.5v-26.5t-2 -35.5h-809q4 -86 30.5 -158.5t77 -125t124.5 -81t170 -28.5q92 0 169.5 21.5t141.5 68.5l12 -121q-66 -41 -149.5 -60.5t-178.5 -19.5q-133 0 -232 43 t-164.5 118t-99.5 177.5t-34 221.5zM219 588h678q-2 88 -27.5 158.5t-69.5 122t-105.5 79t-137.5 27.5q-150 0 -240 -102.5t-98 -284.5z" />
<glyph unicode="f" horiz-adv-x="696" d="M25 954v107h225v67q0 184 82 275.5t231 91.5q86 0 148 -18l-15 -113q-27 10 -59.5 15t-65.5 5q-104 0 -151 -62t-47 -212v-49h309v-107h-309v-954h-123v954h-225z" />
<glyph unicode="g" horiz-adv-x="1167" d="M86 535q0 129 39 231t105.5 173t157 108.5t194.5 37.5q92 0 175 -32.5t140 -87.5v96h123v-991q0 -127 -27.5 -218.5t-86 -149.5t-147.5 -85t-212 -27q-94 0 -187.5 20.5t-166.5 57.5l8 131q72 -49 164 -73.5t184 -24.5q176 0 262 78t86 266v64q-57 -57 -140 -90t-175 -33 q-104 0 -194.5 36.5t-157 107.5t-105.5 173.5t-39 231.5zM213 535q0 -106 29.5 -188.5t82 -137.5t123 -84t150.5 -29q86 0 166 33t133 96v621q-53 63 -133 96t-166 33q-80 0 -150.5 -28.5t-123 -85t-82 -138.5t-29.5 -188z" />
<glyph unicode="h" horiz-adv-x="1171" d="M147 0v1495h123v-537q59 57 146.5 92t181.5 35q205 0 320.5 -120.5t115.5 -350.5v-614h-123v610q1 365 -329 365q-92 0 -174 -37t-138 -100v-838h-123z" />
<glyph unicode="i" horiz-adv-x="471" d="M158 1386q0 59 18.5 84t59.5 25t59 -24.5t18 -84.5q0 -59 -18.5 -83.5t-58.5 -24.5q-41 0 -59.5 24.5t-18.5 83.5zM174 0v1061h123v-1061h-123z" />
<glyph unicode="j" horiz-adv-x="460" d="M-119 -391l13 110q41 -20 98 -20q94 0 138 55.5t44 177.5v1129h123v-1124q0 -184 -75 -265.5t-224 -81.5q-61 0 -117 19zM158 1386q0 59 18.5 84t59.5 25t59 -24.5t18 -84.5q0 -59 -18.5 -83.5t-58.5 -24.5q-41 0 -59.5 24.5t-18.5 83.5z" />
<glyph unicode="k" horiz-adv-x="1017" d="M147 0v1495h123v-877l525 443h170l-545 -465l584 -596h-166l-568 569v-569h-123z" />
<glyph unicode="l" horiz-adv-x="438" d="M158 0v1495h123v-1495h-123z" />
<glyph unicode="m" horiz-adv-x="1759" d="M147 0v1061h123v-103q51 53 132 90t167 37q115 0 188.5 -47t116.5 -118q66 76 159 120.5t206 44.5q86 0 155.5 -27.5t121 -85t79 -142.5t27.5 -199v-631h-123v633q0 172 -70.5 257t-201.5 85q-92 0 -171 -42t-138 -112q16 -47 22 -96t6 -96v-629h-123v633 q0 172 -70.5 257t-199.5 85q-80 0 -158 -38t-125 -99v-838h-123z" />
<glyph unicode="n" horiz-adv-x="1171" d="M147 0v1061h123v-103q59 57 146.5 92t181.5 35q205 0 320.5 -120.5t115.5 -350.5v-614h-123v610q1 365 -329 365q-92 0 -174 -37t-138 -100v-838h-123z" />
<glyph unicode="o" horiz-adv-x="1179" d="M86 530q0 121 37 222.5t103.5 175t158.5 115.5t205 42t205 -42t158.5 -115.5t103.5 -175t37 -222.5t-37 -222t-103.5 -175t-159 -116t-204.5 -42q-113 0 -205 42t-158.5 116t-103.5 175t-37 222zM213 530q0 -102 27.5 -184t78 -139t120 -89t151.5 -32t151.5 32t119.5 89 t78 139t28 184q0 100 -28 183.5t-78 140.5t-119.5 89t-151.5 32t-151.5 -32t-120 -89t-78 -140.5t-27.5 -183.5z" />
<glyph unicode="p" horiz-adv-x="1167" d="M147 -395v1456h123v-96q57 55 140.5 87.5t175.5 32.5q104 0 194 -37.5t157 -110.5t105.5 -175.5t38.5 -231.5t-38.5 -231t-105.5 -175t-157 -111t-194 -38q-92 0 -175 33t-141 90v-493h-123zM270 215q53 -63 133 -96t166 -33q80 0 151 29.5t123 86t81.5 139.5t29.5 189 t-29.5 189.5t-81.5 139.5t-123 86t-151 30q-86 0 -165.5 -33t-133.5 -96v-631z" />
<glyph unicode="q" horiz-adv-x="1167" d="M86 530q0 129 39 231.5t105.5 175.5t157 110.5t194.5 37.5q92 0 175 -32.5t140 -87.5v96h123v-1456h-123v493q-57 -57 -140 -90t-175 -33q-104 0 -194.5 38t-157 111t-105.5 175t-39 231zM213 530q0 -106 29.5 -189t82 -139.5t123 -86t150.5 -29.5q86 0 166 33t133 96 v631q-53 63 -133 96t-166 33q-80 0 -150.5 -30t-123 -86t-82 -139t-29.5 -190z" />
<glyph unicode="r" horiz-adv-x="737" d="M147 0v1061h123v-154q49 78 134 128t192 50q35 0 68.5 -4t58.5 -14l-14 -117q-49 25 -123 25q-104 0 -183 -55.5t-133 -161.5v-758h-123z" />
<glyph unicode="s" horiz-adv-x="935" d="M96 66l10 131q72 -55 159 -83t167 -28q135 0 208 50t73 138q0 76 -63.5 128.5t-215.5 93.5q-170 43 -251 120.5t-81 192.5q0 66 28 117t78 87t118.5 54t152.5 18q80 0 157 -16t142 -45l-12 -125q-66 41 -138.5 58.5t-150.5 17.5q-119 0 -183.5 -44t-64.5 -118 q0 -72 60.5 -124t202.5 -91q197 -53 272.5 -133t75.5 -186q0 -147 -109 -225.5t-297 -78.5q-88 0 -178 22.5t-160 68.5z" />
<glyph unicode="t" horiz-adv-x="751" d="M35 954v107h198v317h123v-317h340v-107h-340v-589q0 -154 46.5 -216.5t154.5 -62.5q31 0 59.5 4t57.5 12l16 -112q-66 -14 -141 -15q-160 0 -238 84t-78 271v624h-198z" />
<glyph unicode="u" horiz-adv-x="1171" d="M137 446v615h123v-610q0 -365 330 -365q92 0 174 37t137 100v838h123v-1061h-123v102q-59 -57 -146 -92t-182 -35q-205 0 -320.5 121t-115.5 350z" />
<glyph unicode="v" horiz-adv-x="1056" d="M35 1061h137l356 -905l357 905h137l-428 -1061h-131z" />
<glyph unicode="w" horiz-adv-x="1597" d="M35 1061h139l289 -885l274 885h123l275 -885l288 885h140l-365 -1061h-125l-274 864l-275 -864h-125z" />
<glyph unicode="x" horiz-adv-x="1030" d="M25 0l415 547l-391 514h148l317 -418l320 418h147l-393 -514l418 -547h-148l-344 451l-342 -451h-147z" />
<glyph unicode="y" horiz-adv-x="1077" d="M35 1061h139l373 -907l356 907h139l-583 -1456h-135l157 395z" />
<glyph unicode="z" horiz-adv-x="948" d="M55 0v119l670 835h-641v107h788v-117l-669 -838h690v-106h-838z" />
<glyph unicode="{" horiz-adv-x="759" d="M168 582v104q68 10 122 59.5t54 143.5v362q0 285 258 285h113v-109h-105q-72 0 -104.5 -38.5t-32.5 -100.5v-381q0 -117 -36 -179t-136 -93q86 -27 129 -82t43 -152v-419q0 -66 33 -103t104 -37h105v-108h-113q-115 0 -186.5 59.5t-71.5 181.5v406q0 92 -54 141t-122 60z " />
<glyph unicode="|" horiz-adv-x="573" d="M229 -410v1985h115v-1985h-115z" />
<glyph unicode="}" horiz-adv-x="759" d="M45 -158h105q72 0 104.5 38t32.5 102v378q0 117 35.5 179.5t136.5 95.5q-86 27 -129 81t-43 150v422q0 66 -34 102.5t-103 36.5h-105v109h113q127 0 192.5 -70.5t65.5 -214.5v-362q0 -94 54 -143.5t122 -59.5v-104q-68 -10 -122 -59.5t-54 -141.5v-365 q0 -143 -65.5 -212.5t-192.5 -69.5h-113v108z" />
<glyph unicode="~" horiz-adv-x="1253" d="M127 522q0 170 72.5 246t193.5 76q63 0 128 -26.5t143 -90.5q66 -53 111.5 -75.5t86.5 -22.5q68 0 102.5 47t34.5 164h127q0 -170 -73.5 -246t-194.5 -76q-63 0 -126.5 27t-141.5 90q-66 53 -113 75.5t-88 22.5q-68 0 -101.5 -47t-33.5 -164h-127z" />
<glyph unicode="&#xa1;" horiz-adv-x="532" d="M178 969q0 63 21.5 88.5t66.5 25.5t66.5 -25.5t21.5 -88.5t-21.5 -89t-66.5 -26t-66.5 25.5t-21.5 89.5zM201 72l28 641h80l29 -641v-447h-137v447z" />
<glyph unicode="&#xa2;" horiz-adv-x="1103" d="M127 530q0 117 36 212.5t99.5 166t151.5 114.5t192 56v226h86v-220q78 -2 152 -15t133 -42l-12 -123q-57 35 -128 51.5t-145 18.5v-889q78 0 153 18.5t130 59.5l12 -123q-59 -33 -135 -49.5t-160 -16.5v-219h-86v226q-109 12 -196.5 56t-150 114.5t-97.5 166t-35 211.5z M254 530q0 -186 96 -299.5t256 -138.5v877q-78 -12 -142.5 -47t-110.5 -91.5t-72.5 -132.5t-26.5 -168z" />
<glyph unicode="&#xa3;" horiz-adv-x="1183" d="M86 0v109q86 74 124 167t38 218v194h-162v107h162v247q0 211 112.5 313.5t323.5 102.5q98 0 186 -20.5t156 -59.5l-10 -127q-74 47 -153 67.5t-169 20.5q-160 0 -237.5 -68.5t-77.5 -228.5v-247h475v-107h-475v-176q0 -129 -32 -226.5t-103 -170.5h874v-115h-1032z" />
<glyph unicode="&#xa4;" horiz-adv-x="1419" d="M168 238l172 170q-41 57 -62.5 125.5t-21.5 146.5t23.5 148.5t64.5 127.5l-6 -4l-170 172l88 90l168 -172q59 47 131 73t154 26t153.5 -25.5t128.5 -73.5l170 172l88 -90l-170 -174q39 -57 60.5 -124.5t21.5 -145.5t-21.5 -146.5t-62.5 -125.5l172 -170l-88 -91l-170 168 q-57 -47 -128.5 -71.5t-153.5 -24.5t-154 24.5t-131 71.5l-168 -168zM379 680q0 -72 25.5 -133.5t69.5 -106.5t104.5 -70.5t130.5 -25.5t130 25.5t104 70.5t69.5 106.5t25.5 133.5t-25.5 133t-69.5 106.5t-104.5 71t-129.5 25.5q-70 0 -130.5 -25.5t-104.5 -71t-69.5 -106.5 t-25.5 -133z" />
<glyph unicode="&#xa5;" horiz-adv-x="1187" d="M43 1434h139l412 -725l412 725h139l-436 -760h372v-90h-422v-154h422v-90h-422v-340h-131v340h-422v90h422v154h-422v90h373z" />
<glyph unicode="&#xa6;" horiz-adv-x="573" d="M229 -205v660h115v-660h-115zM229 750v659h115v-659h-115z" />
<glyph unicode="&#xa7;" horiz-adv-x="1046" d="M145 -121l13 135q74 -53 159.5 -78.5t171.5 -25.5q137 0 206 51t69 137q0 76 -59.5 130.5t-204.5 90.5q-172 43 -260 122t-88 196q0 102 63.5 172t165.5 100q-117 39 -174 106.5t-57 160.5q0 133 102 207.5t283 74.5q86 0 165.5 -17.5t143.5 -47.5l-15 -127 q-66 41 -143.5 59t-153.5 18q-117 0 -180 -45t-63 -122q0 -72 63.5 -121t204.5 -88q188 -53 266 -134t78 -194q0 -98 -60.5 -165.5t-168.5 -96.5q123 -39 177 -114t54 -161q0 -143 -106.5 -225t-307.5 -82q-88 0 -179 21.5t-165 62.5zM291 643q0 -72 55 -125t174 -84 q127 14 184.5 74.5t57.5 134.5q0 76 -57.5 132t-180.5 85q-117 -20 -175 -79.5t-58 -137.5z" />
<glyph unicode="&#xa8;" horiz-adv-x="827" d="M129 1329q0 59 18.5 84t59.5 25t59.5 -24.5t18.5 -84.5q0 -59 -18.5 -83.5t-59.5 -24.5t-59.5 24.5t-18.5 83.5zM543 1329q0 59 18.5 84t59.5 25t59 -24.5t18 -84.5q0 -59 -18 -83.5t-59 -24.5t-59.5 24.5t-18.5 83.5z" />
<glyph unicode="&#xa9;" horiz-adv-x="1708" d="M113 717q0 154 58 289t158.5 235t235.5 158.5t289 58.5t289 -58.5t235.5 -158.5t158.5 -235.5t58 -288.5q0 -154 -58 -289t-158.5 -235.5t-235.5 -159t-289 -58.5t-289 58.5t-235.5 159t-158.5 235.5t-58 289zM186 717q0 -139 51.5 -261t141.5 -213t212 -144.5t263 -53.5 t263 53.5t212 144.5t141.5 213t51.5 261q0 137 -51.5 260t-141.5 214t-212 144.5t-263 53.5t-263 -53.5t-212 -144.5t-141.5 -214t-51.5 -260zM442 713q0 100 34 182t93.5 140.5t140.5 90t173 31.5q70 0 134 -11t124 -40l-11 -102q-53 31 -114.5 45t-124.5 14 q-160 0 -250 -97.5t-90 -252.5q0 -156 90 -253.5t250 -97.5q63 0 124.5 14.5t114.5 45.5l11 -103q-59 -29 -124 -40t-134 -11q-92 0 -173 32t-140.5 90.5t-93.5 140.5t-34 182z" />
<glyph unicode="&#xaa;" horiz-adv-x="892" d="M109 897q0 129 95 191.5t259 62.5h168v16q0 104 -43 145.5t-158 41.5q-61 0 -127.5 -13.5t-120.5 -42.5l-10 97q51 25 120.5 40t141.5 15q168 0 239.5 -68.5t71.5 -228.5v-485h-114v88q-41 -51 -106.5 -77t-143.5 -26q-53 0 -102.5 14.5t-87 45t-60 77t-22.5 107.5z M223 901q0 -74 48 -113.5t126 -39.5q70 0 131.5 25.5t102.5 84.5v201h-166q-117 0 -179.5 -41t-62.5 -117z" />
<glyph unicode="&#xab;" horiz-adv-x="1095" d="M147 608v60l435 401v-127l-332 -303l332 -305v-127zM535 608v60l434 401v-127l-332 -303l332 -305v-127z" />
<glyph unicode="&#xac;" horiz-adv-x="1253" d="M117 788v115h999v-573h-127v458h-872z" />
<glyph unicode="&#xad;" horiz-adv-x="817" d="M127 623v114h563v-114h-563z" />
<glyph unicode="&#xae;" horiz-adv-x="1708" d="M113 717q0 154 58 289t158.5 235t235.5 158.5t289 58.5t289 -58.5t235.5 -158.5t158.5 -235.5t58 -288.5q0 -154 -58 -289t-158.5 -235.5t-235.5 -159t-289 -58.5t-289 58.5t-235.5 159t-158.5 235.5t-58 289zM186 717q0 -139 51.5 -261t141.5 -213t212 -144.5t263 -53.5 t263 53.5t212 144.5t141.5 213t51.5 261q0 137 -51.5 260t-141.5 214t-212 144.5t-263 53.5t-263 -53.5t-212 -144.5t-141.5 -214t-51.5 -260zM555 289v854h297q154 0 242 -65.5t88 -188.5q0 -174 -172 -230l217 -370h-119l-205 350q-18 -2 -38.5 -3t-41.5 -1h-159v-346 h-109zM664 729h182q117 0 171 42t54 118q0 160 -225 160h-182v-320z" />
<glyph unicode="&#xaf;" horiz-adv-x="827" d="M123 1268v106h582v-106h-582z" />
<glyph unicode="&#xb0;" horiz-adv-x="827" d="M141 1194q0 57 20.5 105.5t57.5 83t87 55t108 20.5q57 0 107 -20.5t87 -55t57.5 -83t20.5 -105.5t-20.5 -105.5t-57.5 -84t-87 -55t-107 -19.5t-107.5 19.5t-87.5 55t-57.5 84t-20.5 105.5zM248 1194q0 -72 48 -119t118 -47t118 47t48 119t-48.5 119t-117.5 47 q-70 0 -118 -47t-48 -119z" />
<glyph unicode="&#xb1;" horiz-adv-x="1253" d="M127 96v113h999v-113h-999zM127 752v112h436v432h127v-432h436v-112h-436v-433h-127v433h-436z" />
<glyph unicode="&#xb2;" horiz-adv-x="815" d="M109 483v95q92 72 179 161.5t163 182.5q63 76 90.5 140t27.5 118q0 86 -52 128t-142 42q-59 0 -118.5 -17.5t-113.5 -50.5l-8 111q49 27 113.5 42t130.5 15q145 0 226 -69.5t81 -200.5q0 -72 -30.5 -143.5t-110.5 -172.5q-68 -84 -140.5 -156.5t-136.5 -125.5h424v-99 h-583z" />
<glyph unicode="&#xb3;" horiz-adv-x="815" d="M94 512l10 113q55 -31 113.5 -43.5t116.5 -12.5q115 0 168 48.5t53 115.5q0 41 -18.5 77t-58.5 61.5t-106.5 41t-160.5 15.5v102q88 0 151.5 14.5t103.5 39t58.5 55t18.5 63.5q0 72 -53.5 109t-145.5 37q-53 0 -111.5 -12.5t-111.5 -41.5l-10 105q47 23 111.5 37 t127.5 14q141 0 225 -62.5t84 -179.5q0 -80 -51 -140t-153 -85q111 -29 164 -93.5t53 -156.5q0 -123 -90 -194.5t-246 -71.5q-59 0 -122.5 11t-119.5 34z" />
<glyph unicode="&#xb4;" horiz-adv-x="827" d="M229 1163l246 332h150v-16l-281 -316h-115z" />
<glyph unicode="&#xb5;" d="M147 -395v1456h127v-828q59 -68 143.5 -108.5t180.5 -40.5t180 41t144 108v828h127v-1061h-127v104q-59 -59 -143.5 -94t-180.5 -35q-98 0 -181 35t-143 94v-499h-127z" />
<glyph unicode="&#xb6;" horiz-adv-x="1105" d="M66 1034q0 104 37.5 179t102 124t149.5 73t182 24h401v-1702h-115v1591h-108v-1591h-117v903h-61q-98 0 -183.5 24.5t-150 73.5t-101 124t-36.5 177z" />
<glyph unicode="&#xb7;" horiz-adv-x="598" d="M211 676q0 63 21.5 89t66.5 26t66.5 -26t21.5 -89t-21.5 -89t-66.5 -26t-66.5 26t-21.5 89z" />
<glyph unicode="&#xb8;" horiz-adv-x="827" d="M231 -381q23 -10 50.5 -14t56.5 -4q70 0 106.5 26.5t36.5 73.5q0 49 -52 84t-157 39l99 176h116l-71 -129q84 -16 131 -63.5t47 -108.5q0 -86 -60.5 -136t-191.5 -50q-29 0 -56.5 3t-54.5 11v92z" />
<glyph unicode="&#xb9;" horiz-adv-x="815" d="M145 1251l248 185h99v-953h-115v807l-174 -129z" />
<glyph unicode="&#xba;" horiz-adv-x="892" d="M84 1053q0 88 26.5 160.5t74.5 125t115 82t146 29.5q80 0 146.5 -29.5t115 -82t75 -125t26.5 -160.5t-26.5 -161t-75 -125t-115 -82t-146.5 -30t-146.5 30t-114.5 82t-74.5 125t-26.5 161zM199 1053q0 -143 71.5 -223t175.5 -80t176 80t72 223t-71.5 223t-176.5 80 q-104 0 -175.5 -80t-71.5 -223z" />
<glyph unicode="&#xbb;" horiz-adv-x="1095" d="M127 207v127l332 305l-332 303v127l434 -401v-60zM514 207v127l332 305l-332 303v127l434 -401v-60z" />
<glyph unicode="&#xbc;" horiz-adv-x="1945" d="M71 611l121 90h48v-465h-56v394l-85 -63zM488 -15l393 730h56l-393 -730h-56zM1141 213v94l463 645h112v-641h111v-98h-111v-209h-114v209h-461zM1264 311h338v469z" />
<glyph unicode="&#xbd;" horiz-adv-x="1945" d="M145 1251l248 185h99v-953h-115v807l-174 -129zM400 -31l804 1495h115l-805 -1495h-114zM1217 2v95q92 72 179 161.5t163 182.5q63 76 90.5 140t27.5 118q0 86 -52 128t-142 42q-59 0 -118.5 -17.5t-113.5 -50.5l-8 111q49 27 113.5 42t130.5 15q145 0 226 -69.5 t81 -200.5q0 -72 -30.5 -143.5t-110.5 -172.5q-68 -84 -140.5 -156.5t-136.5 -125.5h424v-99h-583z" />
<glyph unicode="&#xbe;" horiz-adv-x="1945" d="M46 250l5 55q27 -15 55.5 -21t56.5 -6q56 0 82 23.5t26 56.5q0 20 -9 37.5t-28.5 30t-52 20t-78.5 7.5v50q43 0 74 7t50.5 19t28.5 27t9 31q0 35 -26 53t-71 18q-26 0 -54.5 -6t-54.5 -20l-5 51q23 11 54.5 18t62.5 7q69 0 110 -30.5t41 -87.5q0 -39 -25 -68.5t-75 -41.5 q54 -14 80 -45.5t26 -76.5q0 -60 -44 -95t-120 -35q-29 0 -60 5.5t-58 16.5zM547 -15l393 730h56l-393 -730h-56zM1141 213v94l463 645h112v-641h111v-98h-111v-209h-114v209h-461zM1264 311h338v469z" />
<glyph unicode="&#xbf;" horiz-adv-x="1064" d="M147 -57q0 111 60.5 202t191.5 189q45 33 75 66.5t47.5 70.5t23.5 82t6 100v49h131v-55q0 -70 -10 -126t-33 -103t-60 -87t-90 -77q-117 -84 -161.5 -159t-44.5 -156q0 -100 77.5 -160t243.5 -60q88 0 177 21.5t165 64.5l12 -122q-74 -35 -169 -58.5t-175 -23.5 q-106 0 -192 23.5t-147.5 68.5t-94.5 108.5t-33 141.5zM530 969q0 63 21.5 88.5t66.5 25.5t67 -25.5t22 -88.5t-21.5 -89t-67.5 -26q-45 0 -66.5 26t-21.5 89z" />
<glyph unicode="&#xc0;" horiz-adv-x="1310" d="M14 0l568 1434h147l567 -1434h-143l-152 391h-692l-151 -391h-144zM330 1876v16h149l246 -332h-115zM354 506h602l-301 782z" />
<glyph unicode="&#xc1;" horiz-adv-x="1310" d="M14 0l568 1434h147l567 -1434h-143l-152 391h-692l-151 -391h-144zM354 506h602l-301 782zM583 1560l246 332h150v-16l-281 -316h-115z" />
<glyph unicode="&#xc2;" horiz-adv-x="1310" d="M14 0l568 1434h147l567 -1434h-143l-152 391h-692l-151 -391h-144zM314 1552l280 340h123l281 -340h-127l-215 246l-215 -246h-127zM354 506h602l-301 782z" />
<glyph unicode="&#xc3;" horiz-adv-x="1310" d="M14 0l568 1434h147l567 -1434h-143l-152 391h-692l-151 -391h-144zM332 1581q0 78 13.5 132t38 87t57 47t71.5 14q51 0 90 -27.5t70 -60t57.5 -60.5t55.5 -28q31 0 56.5 36t25.5 136h112q0 -78 -13 -132t-36.5 -87t-56.5 -47t-72 -14q-53 0 -91 27.5t-69.5 60.5 t-58.5 60.5t-53 27.5q-31 0 -57.5 -36t-26.5 -136h-113zM354 506h602l-301 782z" />
<glyph unicode="&#xc4;" horiz-adv-x="1310" d="M14 0l568 1434h147l567 -1434h-143l-152 391h-692l-151 -391h-144zM354 506h602l-301 782zM371 1726q0 59 18.5 84t59.5 25t59.5 -24.5t18.5 -84.5q0 -59 -18.5 -83.5t-59.5 -24.5t-59.5 24.5t-18.5 83.5zM785 1726q0 59 18.5 84t59.5 25t59 -24.5t18 -84.5 q0 -59 -18 -83.5t-59 -24.5t-59.5 24.5t-18.5 83.5z" />
<glyph unicode="&#xc5;" horiz-adv-x="1310" d="M14 0l568 1434h147l567 -1434h-143l-152 391h-692l-151 -391h-144zM354 506h602l-301 782zM443 1728q0 90 60.5 150.5t152.5 60.5t152.5 -60.5t60.5 -150.5t-60.5 -150.5t-152.5 -60.5t-152.5 60.5t-60.5 150.5zM539 1728q0 -47 32 -83t85 -36t84.5 36t31.5 83t-31.5 83 t-84.5 36t-85 -36t-32 -83z" />
<glyph unicode="&#xc6;" horiz-adv-x="1724" d="M14 0l758 1434h848v-115h-633v-520h582v-115h-582v-569h651v-115h-782v395h-481l-207 -395h-154zM434 510h422v807z" />
<glyph unicode="&#xc7;" horiz-adv-x="1234" d="M96 717q0 164 52.5 300t147.5 234.5t231.5 152.5t306.5 54q80 0 161.5 -14t147.5 -45l-13 -127q-63 35 -137.5 51t-152.5 16q-143 0 -256 -45t-192 -127t-120 -196.5t-41 -253.5q0 -141 42 -257t121 -197t192.5 -125t257.5 -44q76 0 152.5 17.5t142.5 54.5l10 -129 q-72 -33 -151.5 -46.5t-153.5 -15.5l-58 -104q84 -16 131.5 -63.5t47.5 -108.5q0 -86 -60.5 -136t-191.5 -50q-29 0 -56.5 3t-54.5 11v92q23 -10 50.5 -14t56.5 -4q70 0 106.5 26.5t36.5 73.5q0 49 -52 84t-157 39l88 158q-147 16 -265 75.5t-200 154.5t-126 223t-44 282z " />
<glyph unicode="&#xc8;" horiz-adv-x="1140" d="M168 0v1434h868v-115h-737v-520h686v-115h-686v-569h756v-115h-887zM318 1876v16h149l246 -332h-115z" />
<glyph unicode="&#xc9;" horiz-adv-x="1140" d="M168 0v1434h868v-115h-737v-520h686v-115h-686v-569h756v-115h-887zM473 1560l246 332h150v-16l-281 -316h-115z" />
<glyph unicode="&#xca;" horiz-adv-x="1140" d="M168 0v1434h868v-115h-737v-520h686v-115h-686v-569h756v-115h-887zM256 1552l280 340h123l281 -340h-127l-215 246l-215 -246h-127z" />
<glyph unicode="&#xcb;" horiz-adv-x="1140" d="M168 0v1434h868v-115h-737v-520h686v-115h-686v-569h756v-115h-887zM315 1726q0 59 18.5 84t59.5 25t59.5 -24.5t18.5 -84.5q0 -59 -18.5 -83.5t-59.5 -24.5t-59.5 24.5t-18.5 83.5zM729 1726q0 59 18.5 84t59.5 25t59 -24.5t18 -84.5q0 -59 -18 -83.5t-59 -24.5 t-59.5 24.5t-18.5 83.5z" />
<glyph unicode="&#xcc;" horiz-adv-x="487" d="M-67 1876v16h149l246 -332h-115zM178 0v1434h131v-1434h-131z" />
<glyph unicode="&#xcd;" horiz-adv-x="487" d="M159 1560l246 332h150v-16l-281 -316h-115zM178 0v1434h131v-1434h-131z" />
<glyph unicode="&#xce;" horiz-adv-x="487" d="M-96 1552l280 340h123l281 -340h-127l-215 246l-215 -246h-127zM178 0v1434h131v-1434h-131z" />
<glyph unicode="&#xcf;" horiz-adv-x="487" d="M-39 1726q0 59 18.5 84t59.5 25t59.5 -24.5t18.5 -84.5q0 -59 -18.5 -83.5t-59.5 -24.5t-59.5 24.5t-18.5 83.5zM178 0v1434h131v-1434h-131zM375 1726q0 59 18.5 84t59.5 25t59 -24.5t18 -84.5q0 -59 -18 -83.5t-59 -24.5t-59.5 24.5t-18.5 83.5z" />
<glyph unicode="&#xd0;" horiz-adv-x="1386" d="M35 664v106h143v664h326q174 0 319.5 -45.5t249 -135.5t160.5 -224t57 -312t-57 -312.5t-160.5 -224.5t-249 -135t-319.5 -45h-326v664h-143zM309 115h178q154 0 278 35.5t210 109.5t133 187.5t47 269.5t-47 269.5t-133 187t-210 109.5t-278 36h-178v-549h359v-106h-359 v-549z" />
<glyph unicode="&#xd1;" horiz-adv-x="1433" d="M168 0v1434h162l805 -1262v1262h131v-1434h-160l-805 1262v-1262h-133zM399 1581q0 78 13.5 132t38 87t57 47t71.5 14q51 0 90 -27.5t70 -60t57.5 -60.5t55.5 -28q31 0 56.5 36t25.5 136h112q0 -78 -13 -132t-36.5 -87t-56.5 -47t-72 -14q-53 0 -91 27.5t-69.5 60.5 t-58.5 60.5t-53 27.5q-31 0 -57.5 -36t-26.5 -136h-113z" />
<glyph unicode="&#xd2;" horiz-adv-x="1445" d="M96 717q0 158 42 293t123 235.5t197.5 156.5t264.5 56q147 0 264 -56t198 -156.5t123 -235.5t42 -293t-42 -293t-123 -235.5t-198 -157t-264 -56.5t-264 56.5t-198 157t-123 235.5t-42 293zM231 717q0 -139 34 -254t97.5 -197t154.5 -127t206 -45t206 45t154.5 127 t97 197t33.5 254t-33.5 253.5t-97 196.5t-154.5 127t-206 45t-206 -45t-154.5 -127t-97.5 -196.5t-34 -253.5zM453 1876v16h149l246 -332h-115z" />
<glyph unicode="&#xd3;" horiz-adv-x="1445" d="M96 717q0 158 42 293t123 235.5t197.5 156.5t264.5 56q147 0 264 -56t198 -156.5t123 -235.5t42 -293t-42 -293t-123 -235.5t-198 -157t-264 -56.5t-264 56.5t-198 157t-123 235.5t-42 293zM231 717q0 -139 34 -254t97.5 -197t154.5 -127t206 -45t206 45t154.5 127 t97 197t33.5 254t-33.5 253.5t-97 196.5t-154.5 127t-206 45t-206 -45t-154.5 -127t-97.5 -196.5t-34 -253.5zM598 1560l246 332h150v-16l-281 -316h-115z" />
<glyph unicode="&#xd4;" horiz-adv-x="1445" d="M96 717q0 158 42 293t123 235.5t197.5 156.5t264.5 56q147 0 264 -56t198 -156.5t123 -235.5t42 -293t-42 -293t-123 -235.5t-198 -157t-264 -56.5t-264 56.5t-198 157t-123 235.5t-42 293zM231 717q0 -139 34 -254t97.5 -197t154.5 -127t206 -45t206 45t154.5 127 t97 197t33.5 254t-33.5 253.5t-97 196.5t-154.5 127t-206 45t-206 -45t-154.5 -127t-97.5 -196.5t-34 -253.5zM381 1552l280 340h123l281 -340h-127l-215 246l-215 -246h-127z" />
<glyph unicode="&#xd5;" horiz-adv-x="1445" d="M96 717q0 158 42 293t123 235.5t197.5 156.5t264.5 56q147 0 264 -56t198 -156.5t123 -235.5t42 -293t-42 -293t-123 -235.5t-198 -157t-264 -56.5t-264 56.5t-198 157t-123 235.5t-42 293zM231 717q0 -139 34 -254t97.5 -197t154.5 -127t206 -45t206 45t154.5 127 t97 197t33.5 254t-33.5 253.5t-97 196.5t-154.5 127t-206 45t-206 -45t-154.5 -127t-97.5 -196.5t-34 -253.5zM397 1581q0 78 13.5 132t38 87t57 47t71.5 14q51 0 90 -27.5t70 -60t57.5 -60.5t55.5 -28q31 0 56.5 36t25.5 136h112q0 -78 -13 -132t-36.5 -87t-56.5 -47 t-72 -14q-53 0 -91 27.5t-69.5 60.5t-58.5 60.5t-53 27.5q-31 0 -57.5 -36t-26.5 -136h-113z" />
<glyph unicode="&#xd6;" horiz-adv-x="1445" d="M96 717q0 158 42 293t123 235.5t197.5 156.5t264.5 56q147 0 264 -56t198 -156.5t123 -235.5t42 -293t-42 -293t-123 -235.5t-198 -157t-264 -56.5t-264 56.5t-198 157t-123 235.5t-42 293zM231 717q0 -139 34 -254t97.5 -197t154.5 -127t206 -45t206 45t154.5 127 t97 197t33.5 254t-33.5 253.5t-97 196.5t-154.5 127t-206 45t-206 -45t-154.5 -127t-97.5 -196.5t-34 -253.5zM438 1726q0 59 18.5 84t59.5 25t59.5 -24.5t18.5 -84.5q0 -59 -18.5 -83.5t-59.5 -24.5t-59.5 24.5t-18.5 83.5zM852 1726q0 59 18.5 84t59.5 25t59 -24.5 t18 -84.5q0 -59 -18 -83.5t-59 -24.5t-59.5 24.5t-18.5 83.5z" />
<glyph unicode="&#xd7;" horiz-adv-x="1253" d="M207 346l336 336l-336 338l84 84l336 -338l336 338l84 -84l-336 -338l336 -336l-84 -86l-336 338l-336 -338z" />
<glyph unicode="&#xd8;" horiz-adv-x="1445" d="M96 717q0 158 42 293t123 235.5t197.5 156.5t264.5 56q92 0 173 -23.5t148 -66.5l154 270h127l-192 -338q104 -100 160.5 -250.5t56.5 -332.5q0 -158 -42 -293t-123 -235.5t-198 -157t-264 -56.5q-172 0 -301 76l-146 -256h-126l182 320q-115 100 -175.5 255.5 t-60.5 346.5zM231 717q0 -158 43 -282t121 -208l588 1035q-109 78 -260 77q-115 0 -206 -45t-154.5 -127t-97.5 -196.5t-34 -253.5zM483 158q104 -63 240 -64q115 0 206 45t154.5 127t97 197t33.5 254q0 147 -37.5 266t-109.5 203z" />
<glyph unicode="&#xd9;" horiz-adv-x="1449" d="M168 553v881h131v-869q0 -240 111.5 -355.5t314.5 -115.5t314.5 116t111.5 355v869h131v-881q0 -141 -41 -248.5t-114.5 -180.5t-176 -111t-225.5 -38t-225.5 38t-176 111t-114.5 180.5t-41 248.5zM408 1876v16h149l246 -332h-115z" />
<glyph unicode="&#xda;" horiz-adv-x="1449" d="M168 553v881h131v-869q0 -240 111.5 -355.5t314.5 -115.5t314.5 116t111.5 355v869h131v-881q0 -141 -41 -248.5t-114.5 -180.5t-176 -111t-225.5 -38t-225.5 38t-176 111t-114.5 180.5t-41 248.5zM612 1560l246 332h150v-16l-281 -316h-115z" />
<glyph unicode="&#xdb;" horiz-adv-x="1449" d="M168 553v881h131v-869q0 -240 111.5 -355.5t314.5 -115.5t314.5 116t111.5 355v869h131v-881q0 -141 -41 -248.5t-114.5 -180.5t-176 -111t-225.5 -38t-225.5 38t-176 111t-114.5 180.5t-41 248.5zM383 1552l280 340h123l281 -340h-127l-215 246l-215 -246h-127z" />
<glyph unicode="&#xdc;" horiz-adv-x="1449" d="M168 553v881h131v-869q0 -240 111.5 -355.5t314.5 -115.5t314.5 116t111.5 355v869h131v-881q0 -141 -41 -248.5t-114.5 -180.5t-176 -111t-225.5 -38t-225.5 38t-176 111t-114.5 180.5t-41 248.5zM440 1726q0 59 18.5 84t59.5 25t59.5 -24.5t18.5 -84.5 q0 -59 -18.5 -83.5t-59.5 -24.5t-59.5 24.5t-18.5 83.5zM854 1726q0 59 18.5 84t59.5 25t59 -24.5t18 -84.5q0 -59 -18 -83.5t-59 -24.5t-59.5 24.5t-18.5 83.5z" />
<glyph unicode="&#xdd;" horiz-adv-x="1339" d="M45 1434h148l477 -740l477 740h147l-559 -865v-569h-131v569zM569 1560l246 332h150v-16l-281 -316h-115z" />
<glyph unicode="&#xde;" horiz-adv-x="1193" d="M168 0v1434h131v-265h281q123 0 222 -28.5t169.5 -84t108.5 -137t38 -186.5q0 -106 -38 -188t-108.5 -137.5t-170 -84t-221.5 -28.5h-281v-295h-131zM299 410h268q205 0 310.5 77.5t105.5 245.5q0 166 -105.5 244t-310.5 78h-268v-645z" />
<glyph unicode="&#xdf;" horiz-adv-x="1153" d="M168 0v967q0 244 109.5 367.5t322.5 123.5q92 0 168 -28.5t131 -77.5t85 -117t30 -145q0 -137 -75 -220.5t-194 -117.5q145 -35 233.5 -133.5t88.5 -251.5q0 -180 -106.5 -286t-313.5 -106q-72 0 -136.5 16.5t-113.5 45.5l15 133q47 -35 107.5 -55.5t127.5 -20.5 q147 0 216 77t69 196q0 147 -104.5 237t-297.5 90v109q172 0 260.5 75.5t88.5 208.5q0 111 -76 181.5t-207 70.5q-141 0 -219 -86t-78 -274v-979h-131z" />
<glyph unicode="&#xe0;" horiz-adv-x="1091" d="M76 301q0 160 116.5 252t339.5 92h299v70q0 147 -70.5 203.5t-228.5 56.5q-98 0 -185 -21.5t-163 -60.5l-14 115q72 35 167 56t200 21q211 0 314 -85t103 -300v-700h-123v127q-59 -72 -152 -112t-214 -40q-80 0 -151.5 20.5t-124 61.5t-83 102.5t-30.5 141.5zM203 305 q0 -113 76.5 -166t195.5 -53q117 0 207 38t149 124v291h-296q-172 0 -252 -64.5t-80 -169.5zM262 1520v16h149l246 -332h-115z" />
<glyph unicode="&#xe1;" horiz-adv-x="1091" d="M76 301q0 160 116.5 252t339.5 92h299v70q0 147 -70.5 203.5t-228.5 56.5q-98 0 -185 -21.5t-163 -60.5l-14 115q72 35 167 56t200 21q211 0 314 -85t103 -300v-700h-123v127q-59 -72 -152 -112t-214 -40q-80 0 -151.5 20.5t-124 61.5t-83 102.5t-30.5 141.5zM203 305 q0 -113 76.5 -166t195.5 -53q117 0 207 38t149 124v291h-296q-172 0 -252 -64.5t-80 -169.5zM405 1204l246 332h150v-16l-281 -316h-115z" />
<glyph unicode="&#xe2;" horiz-adv-x="1091" d="M76 301q0 160 116.5 252t339.5 92h299v70q0 147 -70.5 203.5t-228.5 56.5q-98 0 -185 -21.5t-163 -60.5l-14 115q72 35 167 56t200 21q211 0 314 -85t103 -300v-700h-123v127q-59 -72 -152 -112t-214 -40q-80 0 -151.5 20.5t-124 61.5t-83 102.5t-30.5 141.5zM203 305 q0 -113 76.5 -166t195.5 -53q117 0 207 38t149 124v291h-296q-172 0 -252 -64.5t-80 -169.5zM207 1196l280 340h123l281 -340h-127l-215 246l-215 -246h-127z" />
<glyph unicode="&#xe3;" horiz-adv-x="1091" d="M76 301q0 160 116.5 252t339.5 92h299v70q0 147 -70.5 203.5t-228.5 56.5q-98 0 -185 -21.5t-163 -60.5l-14 115q72 35 167 56t200 21q211 0 314 -85t103 -300v-700h-123v127q-59 -72 -152 -112t-214 -40q-80 0 -151.5 20.5t-124 61.5t-83 102.5t-30.5 141.5zM203 305 q0 -113 76.5 -166t195.5 -53q117 0 207 38t149 124v291h-296q-172 0 -252 -64.5t-80 -169.5zM211 1225q0 78 13.5 132t38 87t57 47t71.5 14q51 0 90 -27.5t70 -60t57.5 -60.5t55.5 -28q31 0 56.5 36t25.5 136h112q0 -78 -13 -132t-36.5 -87t-56.5 -47t-72 -14 q-53 0 -91 27.5t-69.5 60.5t-58.5 60.5t-53 27.5q-31 0 -57.5 -36t-26.5 -136h-113z" />
<glyph unicode="&#xe4;" horiz-adv-x="1091" d="M76 301q0 160 116.5 252t339.5 92h299v70q0 147 -70.5 203.5t-228.5 56.5q-98 0 -185 -21.5t-163 -60.5l-14 115q72 35 167 56t200 21q211 0 314 -85t103 -300v-700h-123v127q-59 -72 -152 -112t-214 -40q-80 0 -151.5 20.5t-124 61.5t-83 102.5t-30.5 141.5zM203 305 q0 -113 76.5 -166t195.5 -53q117 0 207 38t149 124v291h-296q-172 0 -252 -64.5t-80 -169.5zM268 1370q0 59 18.5 84t59.5 25t59.5 -24.5t18.5 -84.5q0 -59 -18.5 -83.5t-59.5 -24.5t-59.5 24.5t-18.5 83.5zM682 1370q0 59 18.5 84t59.5 25t59 -24.5t18 -84.5 q0 -59 -18 -83.5t-59 -24.5t-59.5 24.5t-18.5 83.5z" />
<glyph unicode="&#xe5;" horiz-adv-x="1091" d="M76 301q0 160 116.5 252t339.5 92h299v70q0 147 -70.5 203.5t-228.5 56.5q-98 0 -185 -21.5t-163 -60.5l-14 115q72 35 167 56t200 21q211 0 314 -85t103 -300v-700h-123v127q-59 -72 -152 -112t-214 -40q-80 0 -151.5 20.5t-124 61.5t-83 102.5t-30.5 141.5zM203 305 q0 -113 76.5 -166t195.5 -53q117 0 207 38t149 124v291h-296q-172 0 -252 -64.5t-80 -169.5zM336 1370q0 90 60.5 150.5t152.5 60.5t152.5 -60.5t60.5 -150.5t-60.5 -150.5t-152.5 -60.5t-152.5 60.5t-60.5 150.5zM432 1370q0 -47 32 -83t85 -36t84.5 36t31.5 83t-31.5 83 t-84.5 36t-85 -36t-32 -83z" />
<glyph unicode="&#xe6;" horiz-adv-x="1740" d="M76 303q0 166 109.5 254t330.5 88h264v49q0 141 -74.5 211t-216.5 70q-78 0 -157.5 -18.5t-149.5 -55.5l-14 111q72 35 157 54t171 19q147 0 244.5 -63.5t115.5 -185.5q43 123 139.5 186t218.5 63q111 0 195 -39.5t140.5 -111.5t86 -172t29.5 -221v-26.5t-2 -33.5h-762 q6 -86 33 -158.5t74 -125t115.5 -82t158.5 -29.5q72 0 145.5 18.5t131.5 63.5l14 -117q-59 -39 -136 -57.5t-163 -18.5q-160 0 -271.5 78t-158.5 205q-41 -127 -143.5 -205t-258.5 -78q-76 0 -142.5 20.5t-116.5 61.5t-78.5 102.5t-28.5 143.5zM203 307q0 -57 19.5 -98 t52 -68.5t75.5 -41t90 -13.5q57 0 113.5 16.5t102.5 53.5t79 98t43 152v133h-256q-168 0 -243.5 -59.5t-75.5 -172.5zM901 590h635q-4 174 -87 280.5t-232 106.5q-147 0 -228.5 -103.5t-87.5 -283.5z" />
<glyph unicode="&#xe7;" horiz-adv-x="1021" d="M86 530q0 127 42 229.5t115.5 175.5t176 111.5t223.5 38.5q80 0 155.5 -14t137.5 -43l-12 -123q-59 37 -131 53.5t-148 16.5q-92 0 -171 -30t-137 -87t-91 -140t-33 -188q0 -104 33 -187t91 -139.5t138 -87t176 -30.5q78 0 153 18.5t130 59.5l12 -123q-109 -59 -260 -66 l-57 -104q84 -16 131 -63.5t47 -108.5q0 -86 -60.5 -136t-191.5 -50q-29 0 -56.5 3t-54.5 11v92q23 -10 50.5 -14t56.5 -4q70 0 106.5 26.5t36.5 73.5q0 49 -52 84t-157 39l86 156q-109 12 -198.5 55t-153 114.5t-98.5 168t-35 212.5z" />
<glyph unicode="&#xe8;" horiz-adv-x="1105" d="M86 535q0 125 34 227t95 174t148.5 110.5t193.5 38.5q109 0 197 -39.5t149.5 -112.5t94 -173.5t32.5 -218.5v-26.5t-2 -35.5h-809q4 -86 30.5 -158.5t77 -125t124.5 -81t170 -28.5q92 0 169.5 21.5t141.5 68.5l12 -121q-66 -41 -149.5 -60.5t-178.5 -19.5q-133 0 -232 43 t-164.5 118t-99.5 177.5t-34 221.5zM219 588h678q-2 88 -27.5 158.5t-69.5 122t-105.5 79t-137.5 27.5q-150 0 -240 -102.5t-98 -284.5zM287 1520v16h149l246 -332h-115z" />
<glyph unicode="&#xe9;" horiz-adv-x="1105" d="M86 535q0 125 34 227t95 174t148.5 110.5t193.5 38.5q109 0 197 -39.5t149.5 -112.5t94 -173.5t32.5 -218.5v-26.5t-2 -35.5h-809q4 -86 30.5 -158.5t77 -125t124.5 -81t170 -28.5q92 0 169.5 21.5t141.5 68.5l12 -121q-66 -41 -149.5 -60.5t-178.5 -19.5q-133 0 -232 43 t-164.5 118t-99.5 177.5t-34 221.5zM219 588h678q-2 88 -27.5 158.5t-69.5 122t-105.5 79t-137.5 27.5q-150 0 -240 -102.5t-98 -284.5zM432 1204l246 332h150v-16l-281 -316h-115z" />
<glyph unicode="&#xea;" horiz-adv-x="1105" d="M86 535q0 125 34 227t95 174t148.5 110.5t193.5 38.5q109 0 197 -39.5t149.5 -112.5t94 -173.5t32.5 -218.5v-26.5t-2 -35.5h-809q4 -86 30.5 -158.5t77 -125t124.5 -81t170 -28.5q92 0 169.5 21.5t141.5 68.5l12 -121q-66 -41 -149.5 -60.5t-178.5 -19.5q-133 0 -232 43 t-164.5 118t-99.5 177.5t-34 221.5zM213 1196l280 340h123l281 -340h-127l-215 246l-215 -246h-127zM219 588h678q-2 88 -27.5 158.5t-69.5 122t-105.5 79t-137.5 27.5q-150 0 -240 -102.5t-98 -284.5z" />
<glyph unicode="&#xeb;" horiz-adv-x="1105" d="M86 535q0 125 34 227t95 174t148.5 110.5t193.5 38.5q109 0 197 -39.5t149.5 -112.5t94 -173.5t32.5 -218.5v-26.5t-2 -35.5h-809q4 -86 30.5 -158.5t77 -125t124.5 -81t170 -28.5q92 0 169.5 21.5t141.5 68.5l12 -121q-66 -41 -149.5 -60.5t-178.5 -19.5q-133 0 -232 43 t-164.5 118t-99.5 177.5t-34 221.5zM219 588h678q-2 88 -27.5 158.5t-69.5 122t-105.5 79t-137.5 27.5q-150 0 -240 -102.5t-98 -284.5zM276 1370q0 59 18.5 84t59.5 25t59.5 -24.5t18.5 -84.5q0 -59 -18.5 -83.5t-59.5 -24.5t-59.5 24.5t-18.5 83.5zM690 1370q0 59 18.5 84 t59.5 25t59 -24.5t18 -84.5q0 -59 -18 -83.5t-59 -24.5t-59.5 24.5t-18.5 83.5z" />
<glyph unicode="&#xec;" horiz-adv-x="471" d="M-78 1520v16h149l246 -332h-115zM174 0v1061h123v-1061h-123z" />
<glyph unicode="&#xed;" horiz-adv-x="471" d="M131 1204l246 332h150v-16l-281 -316h-115zM174 0v1061h123v-1061h-123z" />
<glyph unicode="&#xee;" horiz-adv-x="471" d="M-104 1196l280 340h123l281 -340h-127l-215 246l-215 -246h-127zM174 0v1061h123v-1061h-123z" />
<glyph unicode="&#xef;" horiz-adv-x="471" d="M-47 1370q0 59 18.5 84t59.5 25t59.5 -24.5t18.5 -84.5q0 -59 -18.5 -83.5t-59.5 -24.5t-59.5 24.5t-18.5 83.5zM174 0v1061h123v-1061h-123zM367 1370q0 59 18.5 84t59.5 25t59 -24.5t18 -84.5q0 -59 -18 -83.5t-59 -24.5t-59.5 24.5t-18.5 83.5z" />
<glyph unicode="&#xf0;" horiz-adv-x="1112" d="M86 498q0 250 124 385t335 135q92 0 184 -39t152 -107q-23 117 -69 197t-114 139l-438 -133l-29 88l373 113q-61 35 -131 59.5t-147 46.5l10 113q127 -29 230.5 -72t183.5 -104l247 76l29 -88l-197 -60q98 -104 147.5 -247.5t49.5 -335.5q0 -158 -29.5 -286t-90 -217 t-154 -137.5t-217.5 -48.5q-98 0 -180.5 35t-142.5 101.5t-93 164t-33 222.5zM215 498q0 -186 83 -300t237 -114q82 0 149.5 34t114.5 105.5t73.5 181t26.5 261.5v31.5t-2 31.5q-70 88 -162 134t-190 46q-154 0 -242 -103.5t-88 -307.5z" />
<glyph unicode="&#xf1;" horiz-adv-x="1171" d="M147 0v1061h123v-103q59 57 146.5 92t181.5 35q205 0 320.5 -120.5t115.5 -350.5v-614h-123v610q1 365 -329 365q-92 0 -174 -37t-138 -100v-838h-123zM260 1225q0 78 13.5 132t38 87t57 47t71.5 14q51 0 90 -27.5t70 -60t57.5 -60.5t55.5 -28q31 0 56.5 36t25.5 136h112 q0 -78 -13 -132t-36.5 -87t-56.5 -47t-72 -14q-53 0 -91 27.5t-69.5 60.5t-58.5 60.5t-53 27.5q-31 0 -57.5 -36t-26.5 -136h-113z" />
<glyph unicode="&#xf2;" horiz-adv-x="1179" d="M86 530q0 121 37 222.5t103.5 175t158.5 115.5t205 42t205 -42t158.5 -115.5t103.5 -175t37 -222.5t-37 -222t-103.5 -175t-159 -116t-204.5 -42q-113 0 -205 42t-158.5 116t-103.5 175t-37 222zM213 530q0 -102 27.5 -184t78 -139t120 -89t151.5 -32t151.5 32t119.5 89 t78 139t28 184q0 100 -28 183.5t-78 140.5t-119.5 89t-151.5 32t-151.5 -32t-120 -89t-78 -140.5t-27.5 -183.5zM330 1520v16h149l246 -332h-115z" />
<glyph unicode="&#xf3;" horiz-adv-x="1179" d="M86 530q0 121 37 222.5t103.5 175t158.5 115.5t205 42t205 -42t158.5 -115.5t103.5 -175t37 -222.5t-37 -222t-103.5 -175t-159 -116t-204.5 -42q-113 0 -205 42t-158.5 116t-103.5 175t-37 222zM213 530q0 -102 27.5 -184t78 -139t120 -89t151.5 -32t151.5 32t119.5 89 t78 139t28 184q0 100 -28 183.5t-78 140.5t-119.5 89t-151.5 32t-151.5 -32t-120 -89t-78 -140.5t-27.5 -183.5zM454 1204l246 332h150v-16l-281 -316h-115z" />
<glyph unicode="&#xf4;" horiz-adv-x="1179" d="M86 530q0 121 37 222.5t103.5 175t158.5 115.5t205 42t205 -42t158.5 -115.5t103.5 -175t37 -222.5t-37 -222t-103.5 -175t-159 -116t-204.5 -42q-113 0 -205 42t-158.5 116t-103.5 175t-37 222zM213 530q0 -102 27.5 -184t78 -139t120 -89t151.5 -32t151.5 32t119.5 89 t78 139t28 184q0 100 -28 183.5t-78 140.5t-119.5 89t-151.5 32t-151.5 -32t-120 -89t-78 -140.5t-27.5 -183.5zM248 1196l280 340h123l281 -340h-127l-215 246l-215 -246h-127z" />
<glyph unicode="&#xf5;" horiz-adv-x="1179" d="M86 530q0 121 37 222.5t103.5 175t158.5 115.5t205 42t205 -42t158.5 -115.5t103.5 -175t37 -222.5t-37 -222t-103.5 -175t-159 -116t-204.5 -42q-113 0 -205 42t-158.5 116t-103.5 175t-37 222zM213 530q0 -102 27.5 -184t78 -139t120 -89t151.5 -32t151.5 32t119.5 89 t78 139t28 184q0 100 -28 183.5t-78 140.5t-119.5 89t-151.5 32t-151.5 -32t-120 -89t-78 -140.5t-27.5 -183.5zM266 1225q0 78 13.5 132t38 87t57 47t71.5 14q51 0 90 -27.5t70 -60t57.5 -60.5t55.5 -28q31 0 56.5 36t25.5 136h112q0 -78 -13 -132t-36.5 -87t-56.5 -47 t-72 -14q-53 0 -91 27.5t-69.5 60.5t-58.5 60.5t-53 27.5q-31 0 -57.5 -36t-26.5 -136h-113z" />
<glyph unicode="&#xf6;" horiz-adv-x="1179" d="M86 530q0 121 37 222.5t103.5 175t158.5 115.5t205 42t205 -42t158.5 -115.5t103.5 -175t37 -222.5t-37 -222t-103.5 -175t-159 -116t-204.5 -42q-113 0 -205 42t-158.5 116t-103.5 175t-37 222zM213 530q0 -102 27.5 -184t78 -139t120 -89t151.5 -32t151.5 32t119.5 89 t78 139t28 184q0 100 -28 183.5t-78 140.5t-119.5 89t-151.5 32t-151.5 -32t-120 -89t-78 -140.5t-27.5 -183.5zM305 1370q0 59 18.5 84t59.5 25t59.5 -24.5t18.5 -84.5q0 -59 -18.5 -83.5t-59.5 -24.5t-59.5 24.5t-18.5 83.5zM719 1370q0 59 18.5 84t59.5 25t59 -24.5 t18 -84.5q0 -59 -18 -83.5t-59 -24.5t-59.5 24.5t-18.5 83.5z" />
<glyph unicode="&#xf7;" horiz-adv-x="1253" d="M127 623v114h999v-114h-999zM539 268q0 63 21.5 89t66.5 26t66.5 -26t21.5 -89t-21.5 -88.5t-66.5 -25.5t-66.5 25.5t-21.5 88.5zM539 1092q0 63 21.5 88.5t66.5 25.5t66.5 -25.5t21.5 -88.5t-21.5 -89t-66.5 -26t-66.5 25.5t-21.5 89.5z" />
<glyph unicode="&#xf8;" horiz-adv-x="1179" d="M86 530q0 121 37 222.5t103.5 175t158.5 115.5t205 42q63 0 120.5 -14t106.5 -39l148 254h125l-183 -315q88 -74 137.5 -186.5t49.5 -254.5q0 -121 -37 -222t-103.5 -175t-159 -116t-204.5 -42q-125 0 -228 52l-145 -252h-125l180 311q-88 74 -137 188.5t-49 255.5z M213 530q0 -109 31.5 -193.5t87.5 -143.5l428 741q-76 41 -170 41q-82 0 -151.5 -32t-120 -89t-78 -140.5t-27.5 -183.5zM420 127q76 -41 170 -41q82 0 151.5 32t119.5 89t78 139t28 184q0 109 -32 193t-87 143z" />
<glyph unicode="&#xf9;" horiz-adv-x="1171" d="M137 446v615h123v-610q0 -365 330 -365q92 0 174 37t137 100v838h123v-1061h-123v102q-59 -57 -146 -92t-182 -35q-205 0 -320.5 121t-115.5 350zM275 1520v16h149l246 -332h-115z" />
<glyph unicode="&#xfa;" horiz-adv-x="1171" d="M137 446v615h123v-610q0 -365 330 -365q92 0 174 37t137 100v838h123v-1061h-123v102q-59 -57 -146 -92t-182 -35q-205 0 -320.5 121t-115.5 350zM493 1204l246 332h150v-16l-281 -316h-115z" />
<glyph unicode="&#xfb;" horiz-adv-x="1171" d="M137 446v615h123v-610q0 -365 330 -365q92 0 174 37t137 100v838h123v-1061h-123v102q-59 -57 -146 -92t-182 -35q-205 0 -320.5 121t-115.5 350zM238 1196l280 340h123l281 -340h-127l-215 246l-215 -246h-127z" />
<glyph unicode="&#xfc;" horiz-adv-x="1171" d="M137 446v615h123v-610q0 -365 330 -365q92 0 174 37t137 100v838h123v-1061h-123v102q-59 -57 -146 -92t-182 -35q-205 0 -320.5 121t-115.5 350zM295 1370q0 59 18.5 84t59.5 25t59.5 -24.5t18.5 -84.5q0 -59 -18.5 -83.5t-59.5 -24.5t-59.5 24.5t-18.5 83.5zM709 1370 q0 59 18.5 84t59.5 25t59 -24.5t18 -84.5q0 -59 -18 -83.5t-59 -24.5t-59.5 24.5t-18.5 83.5z" />
<glyph unicode="&#xfd;" horiz-adv-x="1077" d="M35 1061h139l373 -907l356 907h139l-583 -1456h-135l157 395zM440 1204l246 332h150v-16l-281 -316h-115z" />
<glyph unicode="&#xfe;" horiz-adv-x="1167" d="M147 -395v1890h123v-530q57 55 140.5 87.5t175.5 32.5q104 0 194 -37.5t157 -110.5t105.5 -175.5t38.5 -231.5t-38.5 -231t-105.5 -175t-157 -111t-194 -38q-92 0 -175 33t-141 90v-493h-123zM270 215q53 -63 133 -96t166 -33q80 0 151 29.5t123 86t81.5 139.5t29.5 189 t-29.5 189.5t-81.5 139.5t-123 86t-151 30q-86 0 -165.5 -33t-133.5 -96v-631z" />
<glyph unicode="&#xff;" horiz-adv-x="1077" d="M35 1061h139l373 -907l356 907h139l-583 -1456h-135l157 395zM256 1370q0 59 18.5 84t59.5 25t59.5 -24.5t18.5 -84.5q0 -59 -18.5 -83.5t-59.5 -24.5t-59.5 24.5t-18.5 83.5zM670 1370q0 59 18.5 84t59.5 25t59 -24.5t18 -84.5q0 -59 -18 -83.5t-59 -24.5t-59.5 24.5 t-18.5 83.5z" />
<glyph unicode="&#x152;" horiz-adv-x="1701" d="M96 721q0 164 50.5 298t145.5 228t231 145.5t311 51.5h765v-115h-634v-530h583v-115h-583v-569h651v-115h-780q-174 0 -311.5 51t-232.5 144.5t-145.5 226.5t-50.5 299zM231 721q0 -143 42 -253t121 -185.5t189.5 -117.5t250.5 -50v1212q-139 -6 -251 -47t-190 -118 t-120 -187.5t-42 -253.5z" />
<glyph unicode="&#x153;" horiz-adv-x="1853" d="M86 530q0 123 32 225.5t92 175.5t145 113.5t194 40.5q141 0 246.5 -78.5t152.5 -213.5q47 137 141.5 214.5t239.5 77.5q109 0 193 -39.5t140 -111.5t86 -172t30 -221v-26.5t-2 -33.5h-762q6 -86 32.5 -158.5t73.5 -125t116 -82t159 -29.5q72 0 145.5 18.5t130.5 63.5 l15 -117q-59 -39 -134 -57.5t-161 -18.5q-170 0 -283 83t-160 218q-43 -141 -148.5 -221t-250.5 -80q-109 0 -194 41t-145 114t-92 175t-32 225zM217 530q0 -207 88 -326.5t244 -119.5q158 0 245 120t87 326q0 207 -87 327t-245 120q-156 0 -244 -120t-88 -327zM1014 590 h635q-4 174 -87 280.5t-233 106.5q-147 0 -228 -103.5t-87 -283.5z" />
<glyph unicode="&#x178;" horiz-adv-x="1339" d="M45 1434h148l477 -740l477 740h147l-559 -865v-569h-131v569zM385 1726q0 59 18.5 84t59.5 25t59.5 -24.5t18.5 -84.5q0 -59 -18.5 -83.5t-59.5 -24.5t-59.5 24.5t-18.5 83.5zM799 1726q0 59 18.5 84t59.5 25t59 -24.5t18 -84.5q0 -59 -18 -83.5t-59 -24.5t-59.5 24.5 t-18.5 83.5z" />
<glyph unicode="&#x2c6;" horiz-adv-x="827" d="M72 1155l280 340h123l281 -340h-127l-215 246l-215 -246h-127z" />
<glyph unicode="&#x2dc;" horiz-adv-x="827" d="M90 1188q0 78 13.5 132t38 87t57 47t71.5 14q51 0 90 -27.5t70 -60t57.5 -60.5t55.5 -28q31 0 56.5 36t25.5 136h112q0 -78 -13 -132t-36.5 -87t-56.5 -47t-72 -14q-53 0 -91 27.5t-69.5 60.5t-58.5 60.5t-53 27.5q-31 0 -57.5 -36t-26.5 -136h-113z" />
<glyph unicode="&#x2000;" horiz-adv-x="969" />
<glyph unicode="&#x2001;" horiz-adv-x="1939" />
<glyph unicode="&#x2002;" horiz-adv-x="969" />
<glyph unicode="&#x2003;" horiz-adv-x="1939" />
<glyph unicode="&#x2004;" horiz-adv-x="646" />
<glyph unicode="&#x2005;" horiz-adv-x="484" />
<glyph unicode="&#x2006;" horiz-adv-x="323" />
<glyph unicode="&#x2007;" horiz-adv-x="323" />
<glyph unicode="&#x2008;" horiz-adv-x="242" />
<glyph unicode="&#x2009;" horiz-adv-x="387" />
<glyph unicode="&#x200a;" horiz-adv-x="107" />
<glyph unicode="&#x2010;" horiz-adv-x="817" d="M127 616v127h563v-127h-563z" />
<glyph unicode="&#x2011;" horiz-adv-x="817" d="M127 616v127h563v-127h-563z" />
<glyph unicode="&#x2012;" horiz-adv-x="817" d="M127 616v127h563v-127h-563z" />
<glyph unicode="&#x2013;" horiz-adv-x="1024" d="M0 623v114h1024v-114h-1024z" />
<glyph unicode="&#x2014;" horiz-adv-x="2048" d="M0 623v114h2048v-114h-2048z" />
<glyph unicode="&#x2018;" horiz-adv-x="598" d="M211 1227q0 115 26.5 193.5t104.5 150.5l37 -47q-68 -82 -74 -182q41 -2 61.5 -28t20.5 -87q0 -63 -21.5 -89t-66.5 -26t-66.5 26t-21.5 89z" />
<glyph unicode="&#x2019;" horiz-adv-x="598" d="M211 1456q0 63 21.5 89t66.5 26t66.5 -26t21.5 -89q0 -115 -26.5 -193.5t-104.5 -150.5l-37 47q68 82 74 182q-41 2 -61.5 28t-20.5 87z" />
<glyph unicode="&#x201a;" horiz-adv-x="598" d="M211 90q0 63 21.5 89t66.5 26t66.5 -26t21.5 -89q0 -115 -26.5 -193.5t-104.5 -150.5l-37 47q68 82 74 182q-41 2 -61.5 28t-20.5 87z" />
<glyph unicode="&#x201c;" horiz-adv-x="872" d="M211 1227q0 115 26.5 193.5t104.5 150.5l37 -47q-68 -82 -74 -182q41 -2 61.5 -28t20.5 -87q0 -63 -21.5 -89t-66.5 -26t-66.5 26t-21.5 89zM485 1227q0 115 26.5 193.5t104.5 150.5l37 -47q-68 -82 -74 -182q41 -2 61.5 -28t20.5 -87q0 -63 -21.5 -89t-66.5 -26 t-66.5 26t-21.5 89z" />
<glyph unicode="&#x201d;" horiz-adv-x="872" d="M211 1456q0 63 21.5 89t66.5 26t66.5 -26t21.5 -89q0 -115 -26.5 -193.5t-104.5 -150.5l-37 47q68 82 74 182q-41 2 -61.5 28t-20.5 87zM485 1456q0 63 21.5 89t66.5 26t66.5 -26t21.5 -89q0 -115 -26.5 -193.5t-104.5 -150.5l-37 47q68 82 74 182q-41 2 -61.5 28 t-20.5 87z" />
<glyph unicode="&#x201e;" horiz-adv-x="872" d="M211 90q0 63 21.5 89t66.5 26t66.5 -26t21.5 -89q0 -115 -26.5 -193.5t-104.5 -150.5l-37 47q68 82 74 182q-41 2 -61.5 28t-20.5 87zM485 90q0 63 21.5 89t66.5 26t66.5 -26t21.5 -89q0 -115 -26.5 -193.5t-104.5 -150.5l-37 47q68 82 74 182q-41 2 -61.5 28t-20.5 87z " />
<glyph unicode="&#x2022;" horiz-adv-x="802" d="M209 680q0 92 50 143t142 51t142.5 -51t50.5 -143t-50 -143.5t-143 -51.5q-92 0 -142 51.5t-50 143.5z" />
<glyph unicode="&#x2026;" horiz-adv-x="1552" d="M211 90q0 63 21.5 89t66.5 26t66.5 -26t21.5 -89t-21.5 -89t-66.5 -26t-66.5 26t-21.5 89zM688 90q0 63 21.5 89t66.5 26t66.5 -26t21.5 -89t-21.5 -89t-66.5 -26t-66.5 26t-21.5 89zM1165 90q0 63 21.5 89t66.5 26t66.5 -26t21.5 -89t-21.5 -89t-66.5 -26t-66.5 26 t-21.5 89z" />
<glyph unicode="&#x202f;" horiz-adv-x="387" />
<glyph unicode="&#x2039;" horiz-adv-x="708" d="M147 608v60l435 401v-127l-332 -303l332 -305v-127z" />
<glyph unicode="&#x203a;" horiz-adv-x="708" d="M127 207v127l332 305l-332 303v127l434 -401v-60z" />
<glyph unicode="&#x205f;" horiz-adv-x="484" />
<glyph unicode="&#x20ac;" horiz-adv-x="1228" d="M45 541v90h109q-4 37 -3 82t5 88h-111v90h121q23 129 79 233.5t143 178t203 114.5t257 41q160 0 289 -59l-13 -127q-63 35 -127.5 51t-142.5 16q-233 0 -371.5 -121.5t-179.5 -326.5h711l-25 -90h-698q-4 -41 -5 -88t3 -82h649l-27 -90h-608q41 -211 180.5 -329 t374.5 -118q143 0 275 72l10 -129q-72 -35 -143.5 -48.5t-147.5 -13.5q-143 0 -260 40t-204 114t-143.5 178.5t-78.5 233.5h-121z" />
<glyph unicode="&#x2122;" horiz-adv-x="1368" d="M25 1346v88h512v-88h-205v-580h-103v580h-204zM602 764v670h109l221 -336l223 336h107v-670h-101v512l-192 -287h-72l-192 287v-512h-103z" />
<glyph unicode="&#x25fc;" horiz-adv-x="1064" d="M0 0v1065h1065v-1065h-1065z" />
<glyph unicode="&#xfb01;" horiz-adv-x="1150" />
<glyph unicode="&#xfb02;" horiz-adv-x="1134" />
</font>
</defs>
</svg>
